<?xml version="1.0" encoding="utf-8"?>
<!-- Generator: Adobe Illustrator 19.1.0, SVG Export Plug-In . SVG Version: 6.00 Build 0)  -->
<svg version="1.1" id="Layer_1" xmlns="http://www.w3.org/2000/svg" xmlns:xlink="http://www.w3.org/1999/xlink" x="0px" y="0px"
	 viewBox="0 0 841.9 595.3" style="enable-background:new 0 0 841.9 595.3;" xml:space="preserve">
<path d="M278,325.7c-14.7,0.4-30.9-11.6-36.8-30.3c9.7-5.5,18.7-15.2,18.7-23.6c0-6.6-4.7-9.9-9.9-9.9c-3.2,0-7.4,1.3-11.6,3.4
	c23.7-41.3,19.4-64.3,6.3-64.3c-22.3,0-36.1,49.1-38.5,84.8c-7.3-3.2-16.6-4.2-22.5-4.2c-3.3,0-6.5,0.2-9.7,0.5
	c-10.2-7.8-20-15.2-20-26.1c0-15.5,18.4-35.6,30.8-35.6c3.8,0,5.9,2.6,5.9,5.7c0,9.5-13,26.6-25.3,31.3c1.9,2.5,5.8,5.4,10.8,5.4
	c17.6,0,34-20.5,34-37.7c0-9.9-6.9-21.6-22.3-21.6c-21.3,0-58.9,26.7-58.9,53.6c0,13.1,9.9,22.5,20.1,30.7
	c-20.1,7.8-32.9,21.6-32.9,33.6c0,15.2,14.4,24.4,31.6,24.4c27.8,0,48.5-16.4,48.5-33.3c0-8.1-4.1-14.5-9.7-20.1
	c8.1,0.4,18.5,3.4,19.5,13c1.2,11.4,3.9,15.4,9.5,15.4c8.7,0,6.6-14.9,6.6-21.6c0-11.9,10.6-24.9,18.1-24.9c2.7,0,4,1.3,4,2.9
	c0,5.3-8.7,12.4-13.9,16.1c-3,2.1-2,4.7-1.3,8.3c3.4,18.4,8.9,39.8,25.1,39.8C267.7,341.7,276.7,332,278,325.7z M146,329.5
	c-7.4,0-11.7-3-11.7-8.3c0-6.9,11.3-17.7,26.7-23.9c6,5.1,10.4,10,10.4,15.4C171.3,317.3,164.3,329.5,146,329.5z M225.1,265.7
	c3.6-24.9,9.2-47.8,12.4-47.8C241.8,217.9,235.2,248.3,225.1,265.7z"/>
<path d="M506.3,357.1c-57.3,0-139-24.6-192.7-26.9c4-16.9,5.3-36.7,5.3-52c0-10.7,0.9-22.5-9.9-21.8c-9.6,0.7-7.9,13.5-8.2,23.6
	c-0.4,14-7.9,22.2-13.5,22.2c-5.7,0-2-12.5-2-27.3c0-11.9-6-18.4-14.7-18.4c-3.6,0-8.1,0.6-11.6,3.2c5.3,2.7,8.1,10.1,7.6,17.2
	c-0.7,10.2-2.4,19-2.1,27.7c0.2,6.9,2.6,14.4,14.8,14.4c8.2,0,15.8-7.1,20.8-16.3c-0.9,9-2.8,19.3-5.2,28.4
	c-19,3.2-25.6,13.9-25.6,21.4c0,7.2,4.5,14,15.7,14c12.6,0,20.7-11,25.8-26.1c47.4,4.2,118.1,44,187.5,44c44.1,0,81.6-21.5,70.7-50
	C558.4,351.2,534,357.1,506.3,357.1z M283.6,353.5c-1.5,0-2.4-1-2.4-2.4c0-3.7,3.7-7.6,10.4-9.7C289,348.6,286.1,353.5,283.6,353.5z
	"/>
<path d="M346.3,326.2c16.4,0,26.8-9.2,26.4-21.4c-0.5-17.1-20.7-18.3-20.9-25.5c-0.1-2.2,2.5-3.8,6.2-3.8c3.7,0,8.4,1.9,10.7,6
	c1.2-1.2,5.9-6.3,5.8-10.7c-0.2-7.9-9.9-12.1-19.6-12.1c-14.1,0-26.1,10-25.8,22.4c0.5,15.6,21,20.3,21.1,26.3
	c0.1,2.9-2.1,4.5-5.8,4.5c-8.9,0-9.2-8.4-15.7-8.4c-4.5,0-8,3.7-7.9,8C321.2,319.9,332.5,326.2,346.3,326.2z"/>
<path d="M402,325.3c20.6,0,33.7-17.7,36-35.1c2.9-0.7,5.9-1.7,8.9-3.9c-6.5,17.8,4,38.9,26.6,38.9c13.5,0,25.3-6.8,36.9-17.2
	c6.5,21.2,18.8,32.1,33.2,32.1c9.8,0,15.7-5.7,17.4-9c-15.8-0.5-28.7-18.3-34.6-40.8c16.5-22,27.3-49.5,27.3-67.2
	c0-9.9-5.8-15.4-11.5-15.4c-18.6,0-36.7,27-36.7,63.4c0,8.5,0.6,16.3,1.7,23.3c-6.9,9.1-16.6,15.8-25.1,15.8c-11.8,0-15-8.7-15-19.5
	c0-10.8,5.8-22.1,12.6-22.1c10.1,0,3.7,14.6-3.8,18.7c12.1,7.1,24.7-2.8,24.7-11.8c0-10.1-7.5-15.9-20-15.9
	c-12.5,0-17.2,4.9-24.5,10.3c-4.3,3.2-11.9,8.1-18.5,9.4c-2.1-13-11.3-19.9-19.6-19.9c-9.4,0-14.3,8.3-14.3,14.1
	c0,10.1,7.3,18.8,19.4,18.5c-0.9,12.3-7.3,19.6-13.3,19.6c-17.8,0-14.3-39.3-4.6-46.5c-14.2-2.2-28.8,13.1-28.8,32
	C376.7,316.3,389.2,325.3,402,325.3z M535.6,224.8c1.7,0,2,3.3,2,5.2c0,10.9-5.5,26.5-13.6,41.1
	C524.1,254.9,529.3,224.8,535.6,224.8z"/>
<path d="M724.1,299c-1.9,2.7-11.5,12.5-17.5,12.5c-1.2,0-2.3-0.7-1.9-2.4c1.6-6.3,14.9-19.7,14.9-26.2c0-6.5-10.9-5-25.7-8.4
	c1.7-8.8,1-20.1-12.1-20.1c-9.2,0-14.4,8.2-14.4,15.6c0,6,3.7,11.8,11.6,16.2c-7.2,14.9-14.8,25.1-18.5,25.1
	c-4.5,0-1.7-14.9-1.7-22.2c0-7.3-3-10.6-6.4-10.6c-12.7,0-16.5,28.6-27.4,28.6c-2.8,0-3.4-2.7-3.4-4.6c0-11.9,19.7-36.2,39.4-31.5
	c-0.9-10.5-9.5-11.6-15.1-11.6c-22.9,0-36.5,21.7-41.4,31.6c-4.9,10-17.2,19.3-28.6,19.3c-9.5,0-13.3-5.4-14.6-11.6
	c26.9,1.1,38.5-13.4,38.5-24c0-9-7.9-15.2-21.5-15.2c-19.7,0-38.3,16.9-38.3,38.5c0,16.6,13.3,27.3,31,27.3c11.8,0,22.7-6.9,30.2-16
	c0.6,9.3,5,16.4,14.8,16.4c8.8,0,18-7.7,24.2-16.6c1.7,8.3,5.6,16.7,13.3,16.7c10,0,22.9-12.6,34.5-35.8c2.8,0.8,5.9,1.6,9.3,2.1
	c-5.8,8.6-10.9,19.1-10.9,24.3c0,5.8,4.3,8.9,10.1,8.9C714.8,325.3,729.2,310.6,724.1,299z M577.4,271c3.1,0,4.4,2.5,4.4,4
	c0,5.5-8.4,13.4-20.2,13.7C563.8,280,571.5,271,577.4,271z"/>
</svg>
